<?xml version="1.0" encoding="UTF-8"?>
<svg xmlns="http://www.w3.org/2000/svg" version="1.1" viewBox="0 0 200 200" class="icon">
<g><path fill="#c6c6c6" d="M 72.5,31.5 C 75.5184,31.3354 78.5184,31.502 81.5,32C 85.4442,33.9817 89.6108,35.1483 94,35.5C 102.711,33.2795 111.544,31.9462 120.5,31.5C 119.834,42.8397 115.5,52.5064 107.5,60.5C 131.739,74.6089 147.573,95.2756 155,122.5C 157.688,147.611 146.521,162.111 121.5,166C 102.627,168.633 83.96,167.633 65.5,163C 46.3432,155.193 38.8432,141.027 43,120.5C 49.2454,95.4329 63.0787,75.7662 84.5,61.5C 76.7681,55.3803 72.1014,47.3803 70.5,37.5C 70.6113,35.2857 71.278,33.2857 72.5,31.5 Z"/></g>
<g><path fill="#5e5e5e" d="M 110.5,97.5 C 107.5,98.1667 104.5,98.8333 101.5,99.5C 100.711,99.2172 100.044,98.7172 99.5,98C 103.152,97.5014 106.818,97.3347 110.5,97.5 Z"/></g>
<g><path fill="#121212" d="M 110.5,97.5 C 106.818,97.3347 103.152,97.5014 99.5,98C 100.044,98.7172 100.711,99.2172 101.5,99.5C 104.044,100.708 105.378,102.708 105.5,105.5C 113.232,106.081 113.232,107.414 105.5,109.5C 102.047,115.066 97.0469,118.399 90.5,119.5C 95.5372,124.539 100.871,129.206 106.5,133.5C 104.579,134.641 102.579,134.808 100.5,134C 96.6667,130.167 92.8333,126.333 89,122.5C 87.4412,120.783 86.6079,118.783 86.5,116.5C 92.1953,116.647 96.8619,114.647 100.5,110.5C 101.404,109.791 101.737,108.791 101.5,107.5C 96.3054,107.821 91.3054,107.487 86.5,106.5C 91.5,106.5 96.5,106.5 101.5,106.5C 101.737,105.209 101.404,104.209 100.5,103.5C 99.6528,101.156 97.9861,99.6556 95.5,99C 92.0199,98.6988 88.6866,97.8655 85.5,96.5C 94.1667,95.1667 102.833,95.1667 111.5,96.5C 111.376,97.1067 111.043,97.44 110.5,97.5 Z"/></g>
<g><path fill="#646464" d="M 100.5,103.5 C 101.404,104.209 101.737,105.209 101.5,106.5C 96.5,106.5 91.5,106.5 86.5,106.5C 91.4208,106.138 96.0874,105.138 100.5,103.5 Z"/></g>
<g><path fill="#464646" d="M 86.5,106.5 C 91.3054,107.487 96.3054,107.821 101.5,107.5C 101.737,108.791 101.404,109.791 100.5,110.5C 95.9001,108.869 90.9001,107.869 85.5,107.5C 85.6236,106.893 85.9569,106.56 86.5,106.5 Z"/></g>
</svg>
